<svg version="1.1" id="Layer_1" xmlns="http://www.w3.org/2000/svg" xmlns:xlink="http://www.w3.org/1999/xlink" x="0px" y="0px"
	 width="100%" viewBox="0 0 994 664" enable-background="new 0 0 994 664" xml:space="preserve">
<path fill="#FFFFFE" opacity="1.000000" stroke="none" 
	d="
M648.000000,665.000000 
	C432.000061,665.000000 216.500122,665.000000 1.000144,665.000000 
	C1.000096,443.666809 1.000096,222.333588 1.000048,1.000293 
	C332.333099,1.000195 663.666199,1.000195 994.999512,1.000098 
	C994.999634,222.333054 994.999634,443.666107 994.999817,664.999573 
	C879.500000,665.000000 764.000000,665.000000 648.000000,665.000000 
M96.499504,23.163427 
	C78.185341,23.386669 59.870949,23.592999 41.557175,23.844561 
	C36.732883,23.910830 31.787258,23.476997 27.110178,24.377825 
	C12.611900,27.170256 6.999829,43.077839 14.531155,56.095490 
	C119.795341,238.041245 224.835342,420.116669 329.938660,602.155518 
	C339.196991,618.190918 357.633423,618.205566 366.954193,602.126404 
	C385.619995,569.926270 404.201538,537.677307 422.810822,505.444489 
	C509.133362,355.927032 595.462646,206.413559 681.761597,56.882530 
	C691.501587,40.006008 682.233887,24.175856 662.705017,24.167423 
	C629.209595,24.152962 595.713257,24.297949 562.219177,24.085779 
	C551.429810,24.017437 544.279053,28.345270 538.892029,37.848717 
	C481.622131,138.880356 424.125793,239.783707 366.623016,340.683197 
	C357.526337,356.645050 339.345795,356.486328 330.128479,340.520020 
	C296.649719,282.527740 263.200043,224.518677 229.725128,166.524200 
	C204.305618,122.485558 178.831390,78.478470 153.463806,34.409969 
	C148.965225,26.595022 142.607010,22.730833 133.487228,22.944105 
	C121.496246,23.224524 109.495995,23.108803 96.499504,23.163427 
M941.500000,503.000214 
	C792.375061,503.000214 643.250122,503.014008 494.125244,502.917633 
	C490.538086,502.915314 488.620270,503.875458 486.774658,507.096893 
	C465.384216,544.432861 443.788788,581.651306 422.260437,618.908264 
	C419.466339,623.743652 416.743195,628.619995 413.690704,633.999817 
	C416.140198,633.999817 417.920837,633.999878 419.701508,633.999878 
	C543.500305,633.999878 667.299072,633.999878 791.097839,633.999878 
	C833.086121,633.999878 875.074585,634.059692 917.062683,633.981018 
	C951.268616,633.916992 980.045105,608.001404 981.939880,574.041382 
	C983.237183,550.789490 982.352539,527.415833 982.420837,504.096527 
	C982.421692,503.807983 982.124207,503.518585 981.840454,503.000214 
	C968.809692,503.000214 955.654846,503.000214 941.500000,503.000214 
M760.809204,24.162369 
	C757.631958,23.844450 755.511047,24.444386 753.787476,27.912977 
	C733.395142,68.950638 712.756470,109.865845 692.199768,150.821899 
	C691.565796,152.085159 691.119385,153.442596 690.524170,154.907059 
	C691.518188,155.034592 692.010681,155.153046 692.503174,155.153107 
	C767.976501,155.162735 843.451233,155.431366 918.922546,155.042206 
	C952.165771,154.870789 980.006775,128.692368 981.919922,95.462029 
	C983.257935,72.220100 982.329529,48.847485 982.379883,25.533144 
	C982.380798,25.121241 981.960388,24.708426 981.664124,24.162371 
	C908.348511,24.162371 835.047241,24.162371 760.809204,24.162369 
M777.169495,299.500000 
	C777.168762,289.340637 777.109619,279.180786 777.192871,269.022125 
	C777.232422,264.197296 774.739380,262.837555 770.285828,262.724823 
	C765.709412,262.608948 764.645630,264.735626 764.651978,268.762543 
	C764.718018,310.732330 764.676514,352.702209 764.714539,394.672058 
	C764.719055,399.664612 767.098999,401.380859 772.001160,400.550629 
	C776.489380,399.790436 777.228088,396.883575 777.217102,392.933533 
	C777.131226,362.122559 777.169617,331.311218 777.169495,299.500000 
M914.672363,343.499969 
	C914.673035,357.146179 914.730713,370.792786 914.640320,384.438416 
	C914.612671,388.611572 915.983704,391.118469 920.546997,391.262115 
	C926.280457,391.442505 928.080139,389.720703 928.081970,383.554840 
	C928.092163,349.439331 928.087158,315.323822 928.086609,281.208313 
	C928.086609,279.876984 928.202515,278.531281 928.049744,277.217224 
	C927.683777,274.069702 926.251770,272.096313 922.684937,271.958740 
	C916.332520,271.713715 914.690857,273.112915 914.682739,279.594269 
	C914.656311,300.562805 914.672363,321.531372 914.672363,343.499969 
M750.528687,388.649689 
	C750.730286,388.021942 751.102783,387.395935 751.109192,386.766235 
	C751.477722,350.438354 751.838135,314.110352 752.125793,277.781769 
	C752.157471,273.783508 750.103455,271.878601 745.851562,271.909088 
	C741.186096,271.942535 739.772461,274.343689 739.736389,278.474854 
	C739.428589,313.637054 739.042236,348.798737 738.867371,383.961517 
	C738.856445,386.168579 740.018250,389.923859 741.339417,390.270264 
	C743.991577,390.965637 747.131104,389.801880 750.528687,388.649689 
M852.790588,284.885834 
	C852.389832,278.881073 850.983276,277.562592 845.202881,277.773254 
	C840.257080,277.953552 839.053589,279.369720 839.046326,285.233429 
	C839.027039,300.716919 839.039551,316.200439 839.039734,331.683960 
	C839.039856,347.333954 839.117432,362.984619 838.986694,378.633514 
	C838.953613,382.594879 840.251404,385.017029 844.324341,385.630981 
	C849.953003,386.479553 852.773132,384.092346 852.778198,378.213165 
	C852.804749,347.412628 852.791260,316.612061 852.790588,284.885834 
M676.353821,334.500031 
	C676.354004,316.348114 676.363464,298.196167 676.349243,280.044250 
	C676.344360,273.817627 674.961975,272.052246 670.172607,271.992096 
	C664.948669,271.926483 663.751953,273.424866 663.746643,280.193054 
	C663.733643,296.846191 663.742432,313.499359 663.742737,330.152496 
	C663.743164,348.137878 663.774109,366.123383 663.719543,384.108612 
	C663.708313,387.818146 664.390259,390.736115 668.833557,391.188324 
	C673.888855,391.702820 676.316345,389.686554 676.333923,384.460236 
	C676.388916,368.140350 676.354248,351.820129 676.353821,334.500031 
M713.787292,345.500000 
	C713.787292,352.995636 713.755615,360.491486 713.798767,367.986877 
	C713.826172,372.745117 716.225281,375.126495 720.708313,375.003601 
	C724.926880,374.887970 727.172668,372.538971 727.177979,367.973419 
	C727.206055,343.820801 727.202698,319.668121 727.180298,295.515442 
	C727.175903,290.810638 724.678955,288.139282 720.472412,288.147644 
	C716.290649,288.155945 713.806580,290.836731 713.798828,295.528412 
	C713.771912,311.852234 713.787598,328.176117 713.787292,345.500000 
M622.657410,375.430603 
	C623.878662,373.100281 626.136658,370.780884 626.161438,368.437927 
	C626.420349,343.951569 626.334778,319.461456 626.310242,294.972382 
	C626.305115,289.832520 623.816772,286.894379 619.486938,287.160339 
	C614.748657,287.451447 613.708557,290.786011 613.711670,294.847260 
	C613.730347,319.336334 613.698975,343.825439 613.735474,368.314453 
	C613.744751,374.520569 615.636658,376.168335 622.657410,375.430603 
M800.905518,368.085632 
	C801.268433,367.231293 801.946167,366.377808 801.948486,365.522491 
	C802.009766,343.043274 802.040588,320.563629 801.901917,298.085144 
	C801.894043,296.800171 800.703613,295.035126 799.551392,294.328430 
	C794.391479,291.163422 789.092896,294.298859 789.075256,300.490479 
	C789.016968,320.971588 789.036255,341.452942 789.061829,361.934174 
	C789.071045,369.300446 793.434204,371.856842 800.905518,368.085632 
M864.618713,360.226227 
	C865.075134,365.105957 867.318298,367.378967 871.573975,367.277161 
	C876.575623,367.157501 877.293762,363.977234 877.272766,359.824738 
	C877.176208,340.702423 877.142700,321.578613 877.296692,302.457062 
	C877.330505,298.265137 875.544922,296.206909 871.653625,295.883423 
	C867.480225,295.536407 864.641357,298.621063 864.632446,303.408417 
	C864.597717,322.032318 864.617554,340.656311 864.618713,360.226227 
M651.927185,328.500305 
	C651.926697,323.007446 651.964172,317.514282 651.913879,312.021881 
	C651.871765,307.429291 649.313293,304.765808 645.056702,304.740509 
	C640.803467,304.715240 638.138733,307.398560 638.124329,311.949738 
	C638.082825,325.099091 638.091003,338.248779 638.122620,351.398193 
	C638.132751,355.595642 641.107422,358.722626 644.999023,358.792236 
	C648.836182,358.860901 651.883911,355.701477 651.911438,351.471436 
	C651.959167,344.147949 651.926208,336.823975 651.927185,328.500305 
M950.449219,359.186829 
	C951.230835,357.091217 952.659363,355.004852 952.689392,352.898529 
	C952.890808,338.755524 952.827393,324.608154 952.778564,310.462463 
	C952.760986,305.354034 950.796082,303.026489 946.795288,303.015106 
	C941.859985,303.001007 939.943298,305.058960 939.927673,310.649109 
	C939.889526,324.295624 939.905334,337.942291 939.917175,351.588898 
	C939.923767,359.185486 942.148132,360.992584 950.449219,359.186829 
M820.586975,353.021576 
	C825.223877,353.374054 827.432190,351.015228 827.460754,346.574921 
	C827.524963,336.600464 827.581482,326.623444 827.418762,316.651093 
	C827.343628,312.044403 824.800293,309.787018 820.566223,309.944275 
	C816.221436,310.105682 814.335388,312.667053 814.311279,316.733154 
	C814.252075,326.707825 814.270508,336.683136 814.303772,346.658081 
	C814.315857,350.272308 815.829346,352.708160 820.586975,353.021576 
M894.156250,349.516541 
	C899.610962,350.112610 902.676331,348.146698 902.815979,343.347656 
	C903.043518,335.528015 902.991577,327.694244 902.822021,319.871521 
	C902.732544,315.741699 899.989441,313.126221 896.152283,313.247986 
	C892.424500,313.366302 889.871643,315.713501 889.969482,320.148254 
	C890.134644,327.638062 889.756836,335.148529 890.172180,342.618896 
	C890.296875,344.861176 892.298523,346.999146 894.156250,349.516541 
M694.551025,317.960663 
	C690.251648,317.729340 689.195068,320.513458 689.128845,323.994110 
	C689.034302,328.966705 689.089661,333.942535 689.107300,338.916840 
	C689.120667,342.693176 690.254700,345.215546 694.800659,345.150238 
	C699.245972,345.086395 701.801147,343.263123 701.960632,338.809326 
	C702.132568,334.007416 702.102722,329.190460 701.947815,324.386993 
	C701.815613,320.287506 699.663879,317.962280 694.551025,317.960663 
M599.958801,323.924011 
	C597.833313,321.411377 595.273865,320.182312 592.059998,321.621857 
	C589.035461,322.976654 588.420593,325.570282 588.637878,328.642517 
	C588.813049,331.118561 588.685486,333.616882 588.671265,336.105194 
	C588.648743,340.044312 590.888062,341.897430 594.534668,341.960175 
	C598.146057,342.022308 600.677368,340.078400 600.883911,336.418518 
	C601.106140,332.480865 600.662781,328.505676 599.958801,323.924011 
M977.950378,333.264282 
	C977.952148,324.774170 976.747192,322.812469 971.593201,322.914978 
	C966.487061,323.016541 964.808228,326.196442 965.170044,334.095734 
	C965.364502,338.341064 968.025208,340.376190 971.445740,340.402496 
	C974.926880,340.429230 978.512268,339.049072 977.950378,333.264282 
z"/>
<path fill="#010101" opacity="1.000000" stroke="none" 
	d="
M96.999619,23.163427 
	C109.495995,23.108803 121.496246,23.224524 133.487228,22.944105 
	C142.607010,22.730833 148.965225,26.595022 153.463806,34.409969 
	C178.831390,78.478470 204.305618,122.485558 229.725128,166.524200 
	C263.200043,224.518677 296.649719,282.527740 330.128479,340.520020 
	C339.345795,356.486328 357.526337,356.645050 366.623016,340.683197 
	C424.125793,239.783707 481.622131,138.880356 538.892029,37.848717 
	C544.279053,28.345270 551.429810,24.017437 562.219177,24.085779 
	C595.713257,24.297949 629.209595,24.152962 662.705017,24.167423 
	C682.233887,24.175856 691.501587,40.006008 681.761597,56.882530 
	C595.462646,206.413559 509.133362,355.927032 422.810822,505.444489 
	C404.201538,537.677307 385.619995,569.926270 366.954193,602.126404 
	C357.633423,618.205566 339.196991,618.190918 329.938660,602.155518 
	C224.835342,420.116669 119.795341,238.041245 14.531155,56.095490 
	C6.999829,43.077839 12.611900,27.170256 27.110178,24.377825 
	C31.787258,23.476997 36.732883,23.910830 41.557175,23.844561 
	C59.870949,23.592999 78.185341,23.386669 96.999619,23.163427 
z"/>
<path fill="#000000" opacity="1.000000" stroke="none" 
	d="
M942.000000,503.000214 
	C955.654846,503.000214 968.809692,503.000214 981.840454,503.000214 
	C982.124207,503.518585 982.421692,503.807983 982.420837,504.096527 
	C982.352539,527.415833 983.237183,550.789490 981.939880,574.041382 
	C980.045105,608.001404 951.268616,633.916992 917.062683,633.981018 
	C875.074585,634.059692 833.086121,633.999878 791.097839,633.999878 
	C667.299072,633.999878 543.500305,633.999878 419.701508,633.999878 
	C417.920837,633.999878 416.140198,633.999817 413.690704,633.999817 
	C416.743195,628.619995 419.466339,623.743652 422.260437,618.908264 
	C443.788788,581.651306 465.384216,544.432861 486.774658,507.096893 
	C488.620270,503.875458 490.538086,502.915314 494.125244,502.917633 
	C643.250122,503.014008 792.375061,503.000214 942.000000,503.000214 
z"/>
<path fill="#010101" opacity="1.000000" stroke="none" 
	d="
M761.277588,24.162369 
	C835.047241,24.162371 908.348511,24.162371 981.664124,24.162371 
	C981.960388,24.708426 982.380798,25.121241 982.379883,25.533144 
	C982.329529,48.847485 983.257935,72.220100 981.919922,95.462029 
	C980.006775,128.692368 952.165771,154.870789 918.922546,155.042206 
	C843.451233,155.431366 767.976501,155.162735 692.503174,155.153107 
	C692.010681,155.153046 691.518188,155.034592 690.524170,154.907059 
	C691.119385,153.442596 691.565796,152.085159 692.199768,150.821899 
	C712.756470,109.865845 733.395142,68.950638 753.787476,27.912977 
	C755.511047,24.444386 757.631958,23.844450 761.277588,24.162369 
z"/>
<path fill="#EF7E32" opacity="1.000000" stroke="none" 
	d="
M777.169556,300.000000 
	C777.169617,331.311218 777.131226,362.122559 777.217102,392.933533 
	C777.228088,396.883575 776.489380,399.790436 772.001160,400.550629 
	C767.098999,401.380859 764.719055,399.664612 764.714539,394.672058 
	C764.676514,352.702209 764.718018,310.732330 764.651978,268.762543 
	C764.645630,264.735626 765.709412,262.608948 770.285828,262.724823 
	C774.739380,262.837555 777.232422,264.197296 777.192871,269.022125 
	C777.109619,279.180786 777.168762,289.340637 777.169556,300.000000 
z"/>
<path fill="#EF7E31" opacity="1.000000" stroke="none" 
	d="
M914.672241,342.999939 
	C914.672363,321.531372 914.656311,300.562805 914.682739,279.594269 
	C914.690857,273.112915 916.332520,271.713715 922.684937,271.958740 
	C926.251770,272.096313 927.683777,274.069702 928.049744,277.217224 
	C928.202515,278.531281 928.086609,279.876984 928.086609,281.208313 
	C928.087158,315.323822 928.092163,349.439331 928.081970,383.554840 
	C928.080139,389.720703 926.280457,391.442505 920.546997,391.262115 
	C915.983704,391.118469 914.612671,388.611572 914.640320,384.438416 
	C914.730713,370.792786 914.673035,357.146179 914.672241,342.999939 
z"/>
<path fill="#EF8136" opacity="1.000000" stroke="none" 
	d="
M750.299072,389.027588 
	C747.131104,389.801880 743.991577,390.965637 741.339417,390.270264 
	C740.018250,389.923859 738.856445,386.168579 738.867371,383.961517 
	C739.042236,348.798737 739.428589,313.637054 739.736389,278.474854 
	C739.772461,274.343689 741.186096,271.942535 745.851562,271.909088 
	C750.103455,271.878601 752.157471,273.783508 752.125793,277.781769 
	C751.838135,314.110352 751.477722,350.438354 751.109192,386.766235 
	C751.102783,387.395935 750.730286,388.021942 750.299072,389.027588 
z"/>
<path fill="#EF8338" opacity="1.000000" stroke="none" 
	d="
M852.791138,285.348694 
	C852.791260,316.612061 852.804749,347.412628 852.778198,378.213165 
	C852.773132,384.092346 849.953003,386.479553 844.324341,385.630981 
	C840.251404,385.017029 838.953613,382.594879 838.986694,378.633514 
	C839.117432,362.984619 839.039856,347.333954 839.039734,331.683960 
	C839.039551,316.200439 839.027039,300.716919 839.046326,285.233429 
	C839.053589,279.369720 840.257080,277.953552 845.202881,277.773254 
	C850.983276,277.562592 852.389832,278.881073 852.791138,285.348694 
z"/>
<path fill="#EF8034" opacity="1.000000" stroke="none" 
	d="
M676.354065,335.000061 
	C676.354248,351.820129 676.388916,368.140350 676.333923,384.460236 
	C676.316345,389.686554 673.888855,391.702820 668.833557,391.188324 
	C664.390259,390.736115 663.708313,387.818146 663.719543,384.108612 
	C663.774109,366.123383 663.743164,348.137878 663.742737,330.152496 
	C663.742432,313.499359 663.733643,296.846191 663.746643,280.193054 
	C663.751953,273.424866 664.948669,271.926483 670.172607,271.992096 
	C674.961975,272.052246 676.344360,273.817627 676.349243,280.044250 
	C676.363464,298.196167 676.354004,316.348114 676.354065,335.000061 
z"/>
<path fill="#EF7F32" opacity="1.000000" stroke="none" 
	d="
M713.787170,345.000000 
	C713.787598,328.176117 713.771912,311.852234 713.798828,295.528412 
	C713.806580,290.836731 716.290649,288.155945 720.472412,288.147644 
	C724.678955,288.139282 727.175903,290.810638 727.180298,295.515442 
	C727.202698,319.668121 727.206055,343.820801 727.177979,367.973419 
	C727.172668,372.538971 724.926880,374.887970 720.708313,375.003601 
	C716.225281,375.126495 713.826172,372.745117 713.798767,367.986877 
	C713.755615,360.491486 713.787292,352.995636 713.787170,345.000000 
z"/>
<path fill="#EF8135" opacity="1.000000" stroke="none" 
	d="
M622.287720,375.611511 
	C615.636658,376.168335 613.744751,374.520569 613.735474,368.314453 
	C613.698975,343.825439 613.730347,319.336334 613.711670,294.847260 
	C613.708557,290.786011 614.748657,287.451447 619.486938,287.160339 
	C623.816772,286.894379 626.305115,289.832520 626.310242,294.972382 
	C626.334778,319.461456 626.420349,343.951569 626.161438,368.437927 
	C626.136658,370.780884 623.878662,373.100281 622.287720,375.611511 
z"/>
<path fill="#EF8136" opacity="1.000000" stroke="none" 
	d="
M800.548828,368.308472 
	C793.434204,371.856842 789.071045,369.300446 789.061829,361.934174 
	C789.036255,341.452942 789.016968,320.971588 789.075256,300.490479 
	C789.092896,294.298859 794.391479,291.163422 799.551392,294.328430 
	C800.703613,295.035126 801.894043,296.800171 801.901917,298.085144 
	C802.040588,320.563629 802.009766,343.043274 801.948486,365.522491 
	C801.946167,366.377808 801.268433,367.231293 800.548828,368.308472 
z"/>
<path fill="#EF7F32" opacity="1.000000" stroke="none" 
	d="
M864.617859,359.753235 
	C864.617554,340.656311 864.597717,322.032318 864.632446,303.408417 
	C864.641357,298.621063 867.480225,295.536407 871.653625,295.883423 
	C875.544922,296.206909 877.330505,298.265137 877.296692,302.457062 
	C877.142700,321.578613 877.176208,340.702423 877.272766,359.824738 
	C877.293762,363.977234 876.575623,367.157501 871.573975,367.277161 
	C867.318298,367.378967 865.075134,365.105957 864.617859,359.753235 
z"/>
<path fill="#EF8339" opacity="1.000000" stroke="none" 
	d="
M651.927124,329.000244 
	C651.926208,336.823975 651.959167,344.147949 651.911438,351.471436 
	C651.883911,355.701477 648.836182,358.860901 644.999023,358.792236 
	C641.107422,358.722626 638.132751,355.595642 638.122620,351.398193 
	C638.091003,338.248779 638.082825,325.099091 638.124329,311.949738 
	C638.138733,307.398560 640.803467,304.715240 645.056702,304.740509 
	C649.313293,304.765808 651.871765,307.429291 651.913879,312.021881 
	C651.964172,317.514282 651.926697,323.007446 651.927124,329.000244 
z"/>
<path fill="#F0843B" opacity="1.000000" stroke="none" 
	d="
M950.093994,359.408081 
	C942.148132,360.992584 939.923767,359.185486 939.917175,351.588898 
	C939.905334,337.942291 939.889526,324.295624 939.927673,310.649109 
	C939.943298,305.058960 941.859985,303.001007 946.795288,303.015106 
	C950.796082,303.026489 952.760986,305.354034 952.778564,310.462463 
	C952.827393,324.608154 952.890808,338.755524 952.689392,352.898529 
	C952.659363,355.004852 951.230835,357.091217 950.093994,359.408081 
z"/>
<path fill="#F0853B" opacity="1.000000" stroke="none" 
	d="
M820.172485,353.019165 
	C815.829346,352.708160 814.315857,350.272308 814.303772,346.658081 
	C814.270508,336.683136 814.252075,326.707825 814.311279,316.733154 
	C814.335388,312.667053 816.221436,310.105682 820.566223,309.944275 
	C824.800293,309.787018 827.343628,312.044403 827.418762,316.651093 
	C827.581482,326.623444 827.524963,336.600464 827.460754,346.574921 
	C827.432190,351.015228 825.223877,353.374054 820.172485,353.019165 
z"/>
<path fill="#F0843A" opacity="1.000000" stroke="none" 
	d="
M893.798279,349.350708 
	C892.298523,346.999146 890.296875,344.861176 890.172180,342.618896 
	C889.756836,335.148529 890.134644,327.638062 889.969482,320.148254 
	C889.871643,315.713501 892.424500,313.366302 896.152283,313.247986 
	C899.989441,313.126221 902.732544,315.741699 902.822021,319.871521 
	C902.991577,327.694244 903.043518,335.528015 902.815979,343.347656 
	C902.676331,348.146698 899.610962,350.112610 893.798279,349.350708 
z"/>
<path fill="#F0843A" opacity="1.000000" stroke="none" 
	d="
M694.965881,317.960205 
	C699.663879,317.962280 701.815613,320.287506 701.947815,324.386993 
	C702.102722,329.190460 702.132568,334.007416 701.960632,338.809326 
	C701.801147,343.263123 699.245972,345.086395 694.800659,345.150238 
	C690.254700,345.215546 689.120667,342.693176 689.107300,338.916840 
	C689.089661,333.942535 689.034302,328.966705 689.128845,323.994110 
	C689.195068,320.513458 690.251648,317.729340 694.965881,317.960205 
z"/>
<path fill="#EF8135" opacity="1.000000" stroke="none" 
	d="
M600.234314,324.235413 
	C600.662781,328.505676 601.106140,332.480865 600.883911,336.418518 
	C600.677368,340.078400 598.146057,342.022308 594.534668,341.960175 
	C590.888062,341.897430 588.648743,340.044312 588.671265,336.105194 
	C588.685486,333.616882 588.813049,331.118561 588.637878,328.642517 
	C588.420593,325.570282 589.035461,322.976654 592.059998,321.621857 
	C595.273865,320.182312 597.833313,321.411377 600.234314,324.235413 
z"/>
<path fill="#F0853C" opacity="1.000000" stroke="none" 
	d="
M977.949890,333.704163 
	C978.512268,339.049072 974.926880,340.429230 971.445740,340.402496 
	C968.025208,340.376190 965.364502,338.341064 965.170044,334.095734 
	C964.808228,326.196442 966.487061,323.016541 971.593201,322.914978 
	C976.747192,322.812469 977.952148,324.774170 977.949890,333.704163 
z"/>
</svg>